<svg width="32" height="31" viewBox="0 0 32 31" fill="none" xmlns="http://www.w3.org/2000/svg">
<path d="M14.0979 1.8541C14.6966 0.0114833 17.3034 0.011479 17.9021 1.8541L20.2658 9.12868C20.5335 9.95272 21.3014 10.5106 22.1679 10.5106H29.8168C31.7543 10.5106 32.5598 12.9899 30.9924 14.1287L24.8043 18.6246C24.1033 19.1339 23.81 20.0366 24.0777 20.8607L26.4414 28.1353C27.0401 29.9779 24.9311 31.5101 23.3637 30.3713L17.1756 25.8754C16.4746 25.3661 15.5254 25.3661 14.8244 25.8754L8.63631 30.3713C7.06888 31.5101 4.95992 29.9779 5.55862 28.1353L7.92228 20.8607C8.19002 20.0366 7.89671 19.1339 7.19573 18.6246L1.00761 14.1287C-0.559815 12.9899 0.245734 10.5106 2.18318 10.5106H9.83212C10.6986 10.5106 11.4665 9.95272 11.7342 9.12868L14.0979 1.8541Z" fill="#EF233C"/>
</svg>
