<svg width="564" height="564" viewBox="0 0 564 564" fill="none" xmlns="http://www.w3.org/2000/svg">
<g filter="url(#filter0_d)">
<circle cx="281.594" cy="277.594" r="227.5" transform="rotate(14.6332 281.594 277.594)" fill="#009BDE"/>
<path fill-rule="evenodd" clip-rule="evenodd" d="M213.046 323.137L133.357 323.455L109.365 323.551L58.7743 323.753C51.861 290.509 52.3136 255.202 61.4732 220.121C93.2148 98.5513 217.498 25.7316 339.067 57.4732C456.273 88.0756 528.166 204.696 504.731 321.972L443.543 322.216L419.551 322.312L339.862 322.63L315.87 322.726L237.038 323.041L213.046 323.137ZM419.647 346.465L339.959 346.783L340.56 497.36C369.442 489.582 396.48 476.183 420.093 458.09L419.647 346.465ZM444.001 436.96C468.421 412.121 487.428 381.363 498.524 346.149L443.64 346.369L444.001 436.96ZM237.135 347.193L315.966 346.879L316.588 502.445C291.017 506.438 264.403 506.097 237.748 500.836L237.135 347.193ZM213.142 347.289L133.454 347.608L133.865 450.672C156.62 470.123 183.548 485.335 213.731 494.741L213.142 347.289ZM65.1941 347.88L109.461 347.703L109.777 426.742C89.8321 403.724 74.6414 376.874 65.1941 347.88Z" fill="#0E103D"/>
<path d="M128.901 189.996L124.149 183.228L124.725 173.148L166.197 173.149L167.637 186.829L157.413 189.421L176.563 243.998L193.701 194.318C193.989 193.55 194.133 192.878 194.133 192.302C194.133 191.054 193.557 190.238 192.405 189.854L182.469 185.822L183.477 173.15L221.061 173.152L221.925 185.392L215.589 193.455L184.193 270.638L159.425 272.797L128.901 189.996ZM255.181 272.081C242.989 272.08 233.869 268.96 227.821 262.72C221.87 256.48 218.894 246.927 218.894 234.063C218.895 225.807 220.383 218.608 223.359 212.464C226.432 206.32 230.8 201.616 236.464 198.352C242.128 195.088 248.8 193.457 256.48 193.457C281.344 193.458 293.776 206.322 293.774 232.05C293.774 244.626 290.366 254.466 283.549 261.57C276.829 268.578 267.373 272.081 255.181 272.081ZM257.486 255.233C259.406 255.233 261.086 255.089 262.526 254.801C263.966 254.417 265.502 253.841 267.134 253.073C267.71 250.865 268.19 248.033 268.574 244.577C268.958 241.121 269.15 237.809 269.15 234.641C269.151 226.865 267.903 220.961 265.407 216.929C263.007 212.897 259.407 210.881 254.607 210.881C251.439 210.881 248.223 211.313 244.959 212.177C244.287 213.616 243.759 215.968 243.375 219.232C242.991 222.4 242.799 226.048 242.799 230.176C242.798 238.24 244.046 244.432 246.542 248.753C249.134 253.073 252.782 255.233 257.486 255.233ZM333.357 272.084C324.909 272.084 318.669 270.019 314.637 265.891C310.606 261.667 308.59 255.283 308.59 246.739L308.592 211.747L298.512 211.747L298.512 201.235L324.433 177.62L332.785 178.628L332.784 194.9L356.976 194.901L356.976 211.893L332.784 211.892L332.782 241.556C332.782 246.164 333.406 249.236 334.654 250.772C335.998 252.308 338.542 253.076 342.286 253.076C345.454 253.077 349.87 252.645 355.534 251.781L357.261 266.469C353.805 268.101 349.917 269.445 345.597 270.501C341.373 271.556 337.293 272.084 333.357 272.084ZM398.591 271.943C387.359 271.942 378.672 268.534 372.528 261.718C366.48 254.901 363.456 245.493 363.457 233.493C363.457 225.141 364.946 217.989 367.922 212.037C370.898 205.99 375.122 201.382 380.594 198.214C386.066 195.046 392.451 193.462 399.747 193.463C410.595 193.463 418.898 196.92 424.658 203.832C430.514 210.744 433.297 220.584 433.009 233.352L389.233 241.414C390.576 245.446 392.448 248.422 394.848 250.343C397.344 252.167 400.608 253.079 404.64 253.079C407.424 253.079 410.736 252.695 414.576 251.927C418.416 251.063 422.304 249.912 426.24 248.472L429.552 262.728C426 265.416 421.392 267.624 415.727 269.351C410.063 271.079 404.351 271.943 398.591 271.943ZM409.393 221.255C409.202 217.607 408.146 214.967 406.226 213.335C404.402 211.607 401.81 210.743 398.45 210.743C395.666 210.743 393.026 211.126 390.53 211.894C388.514 216.598 387.601 221.686 387.793 227.158L409.393 221.255Z" fill="#F4F4F9"/>
<path d="M91.5045 301.69C93.1903 300.735 95.1132 302.495 94.3107 304.258L93.1585 306.79C92.7996 307.579 92.9894 308.509 93.6285 309.094L95.6803 310.972C97.1094 312.28 96.0297 314.653 94.1046 314.434L91.3407 314.121C90.4797 314.023 89.6538 314.491 89.295 315.28L88.1428 317.812C87.3403 319.575 84.7501 319.281 84.3628 317.383L83.8068 314.657C83.6336 313.809 82.9334 313.168 82.0725 313.07L79.3086 312.757C77.3835 312.538 76.8624 309.984 78.5482 309.029L80.9684 307.658C81.7223 307.231 82.1155 306.367 81.9423 305.518L81.3863 302.793C80.999 300.894 83.2672 299.609 84.6963 300.918L86.7481 302.796C87.3873 303.381 88.3304 303.488 89.0843 303.061L91.5045 301.69Z" fill="#EF233C"/>
<path d="M114.887 314.162C116.032 312.6 118.508 313.417 118.499 315.354L118.475 320.595C118.471 321.461 119.026 322.232 119.848 322.503L124.825 324.145C126.665 324.752 126.653 327.359 124.807 327.949L119.816 329.546C118.991 329.81 118.43 330.575 118.426 331.442L118.402 336.682C118.393 338.619 115.91 339.413 114.778 337.841L111.718 333.587C111.212 332.884 110.31 332.587 109.485 332.851L104.494 334.447C102.648 335.037 101.126 332.922 102.272 331.359L105.371 327.134C105.884 326.435 105.888 325.486 105.382 324.783L102.321 320.529C101.19 318.957 102.731 316.855 104.571 317.462L109.548 319.104C110.37 319.376 111.275 319.086 111.787 318.388L114.887 314.162Z" fill="#EF233C"/>
<path d="M356.461 91.1244C356.926 89.2434 359.526 89.0557 360.256 90.8504L365.312 103.285C365.639 104.088 366.445 104.589 367.309 104.527L380.698 103.56C382.631 103.42 383.612 105.835 382.131 107.084L371.868 115.736C371.205 116.294 370.977 117.216 371.304 118.018L376.361 130.453C377.091 132.248 375.097 133.928 373.452 132.905L362.052 125.817C361.316 125.36 360.369 125.428 359.707 125.987L349.443 134.639C347.962 135.887 345.748 134.511 346.213 132.63L349.431 119.598C349.638 118.757 349.281 117.877 348.545 117.42L337.145 110.332C335.499 109.309 336.124 106.778 338.057 106.639L351.446 105.672C352.31 105.61 353.036 104.998 353.243 104.157L356.461 91.1244Z" fill="#EF233C"/>
<path d="M413.22 132.029C414.946 131.15 416.789 132.993 415.91 134.719L411.791 142.803C411.398 143.575 411.546 144.512 412.159 145.125L418.574 151.54C419.944 152.91 418.761 155.233 416.847 154.93L407.886 153.511C407.03 153.375 406.185 153.806 405.791 154.578L401.672 162.662C400.793 164.388 398.218 163.98 397.915 162.067L396.496 153.106C396.36 152.25 395.689 151.579 394.833 151.443L385.872 150.024C383.959 149.721 383.551 147.146 385.277 146.267L393.361 142.148C394.133 141.755 394.564 140.909 394.428 140.053L393.009 131.092C392.706 129.179 395.029 127.995 396.399 129.365L402.814 135.78C403.427 136.393 404.364 136.541 405.136 136.148L413.22 132.029Z" fill="#EF233C"/>
</g>
<defs>
<filter id="filter0_d" x="0" y="0" width="563.188" height="563.188" filterUnits="userSpaceOnUse" color-interpolation-filters="sRGB">
<feFlood flood-opacity="0" result="BackgroundImageFix"/>
<feColorMatrix in="SourceAlpha" type="matrix" values="0 0 0 0 0 0 0 0 0 0 0 0 0 0 0 0 0 0 127 0"/>
<feOffset dy="4"/>
<feGaussianBlur stdDeviation="2"/>
<feColorMatrix type="matrix" values="0 0 0 0 0 0 0 0 0 0 0 0 0 0 0 0 0 0 0.25 0"/>
<feBlend mode="normal" in2="BackgroundImageFix" result="effect1_dropShadow"/>
<feBlend mode="normal" in="SourceGraphic" in2="effect1_dropShadow" result="shape"/>
</filter>
</defs>
</svg>
